<?xml version="1.0" standalone="no"?><!DOCTYPE svg PUBLIC "-//W3C//DTD SVG 1.1//EN" "http://www.w3.org/Graphics/SVG/1.1/DTD/svg11.dtd"><svg t="1599018937217" class="icon" viewBox="0 0 1257 1024" version="1.1" xmlns="http://www.w3.org/2000/svg" p-id="2344" xmlns:xlink="http://www.w3.org/1999/xlink" width="157.125" height="128"><defs><style type="text/css"></style></defs><path d="M969.781895 639.01193C920.414316 785.677474 781.473684 890.772211 618.549895 890.772211c-102.974877 0-196.069053-42.325333-263.778807-110.035088L265.198035 801.235088a464.213333 464.213333 0 0 0 363.214597 174.205754c222.17207 0 407.659789-155.162947 454.925473-363.232561l-113.538245 26.803649z m-24.68379 5.623017l-565.643228 130.479158a350.028351 350.028351 0 0 0 239.095018 94.513404c148.821333 0 275.761404-93.794807 326.54821-224.992562z m-50.06821-371.694035l118.478596-27.486316C929.576421 122.700351 788.51593 42.307368 628.412632 42.307368c-234.855298 0-428.822456 172.786526-461.249123 398.47972l93.794807-21.863299A370.670035 370.670035 0 0 1 618.549895 148.120702a373.095298 373.095298 0 0 1 276.48 124.82021z m-23.983158 5.658948C805.456842 208.752281 713.745965 169.984 617.813333 169.984c-156.564211 0-288.462596 102.256281-333.608421 244.017404l586.82386-135.401544zM219.351579 811.798456l-136.12014 31.025404L0 479.609263l123.418947-28.204912C152.342456 197.470316 367.454316 0 629.131228 0c180.547368 0 338.530807 93.812772 428.822456 235.573895l115.658105-26.803649L1257.54386 572.703439l-128.359299 29.62414C1085.44 839.302737 878.088982 1018.430877 629.131228 1018.430877c-167.86414-0.718596-316.685474-81.812211-409.779649-206.650386zM32.444632 489.472l76.171228 330.78793 1115.782736-257.437193-76.171228-330.78793-1115.800701 257.437193z m244.035368-156.564211l-2.820491 28.204913-20.462035-19.042807-27.486316 6.341614 11.982596-25.384421-14.120421-23.983158 28.204913 3.521123 18.342175-21.144702 5.658947 27.486316 26.085053 11.299929-25.384421 12.701193z m110.017123-135.419508l-2.820491 28.204912-20.444071-19.042807-27.50428 6.341614 11.982596-25.384421-14.102456-23.983158 28.204912 3.539088 18.342176-21.162667 5.640982 27.486316 26.103018 11.29993c-1.419228-0.718596-25.402386 12.701193-25.402386 12.701193z m169.283368-84.632702l-2.820491 28.204912-20.462035-19.042807-27.504281 6.341614 11.982597-25.384421-14.102456-23.983158 28.204912 3.521123 18.342175-21.144702 5.640983 27.486316 26.103017 11.29993c-0.718596-0.718596-25.384421 12.701193-25.384421 12.701193z m212.291369 21.144702l-2.820492 28.204912-20.462035-19.042807-27.486315 6.359579 11.964631-25.384421-14.102456-23.983158 28.204912 3.521123L761.712281 82.512842l5.658947 27.522246 26.085053 11.281965-25.384421 12.683228z m148.102736 84.632701l-2.820491 28.204913-20.44407-19.042807-27.504281 6.359579 11.982597-25.384421-14.102456-23.983158 28.204912 3.521123 18.342175-21.144702 5.640983 27.486316 26.103017 11.299929-25.402386 12.683228z m105.813334 466.908071l-2.838456 28.204912-20.44407-19.042807-27.504281 6.359579 11.982596-25.384421-14.102456-23.983158 28.204912 3.521123 18.324211-21.162667 5.658947 27.522246 26.103018 11.281965-25.402386 12.683228z m-84.650667 126.958035l-2.820491 28.204912-20.44407-19.042807-27.522246 6.359579 12.000562-25.384421-14.102457-23.983158 28.204913 3.521123 18.32421-21.162667 5.658948 27.504281 26.085052 11.281965-25.384421 12.701193z m-169.265403 105.813333l-2.820492 28.204912-20.462035-19.042807-27.486315 6.341614 11.964631-25.402386-14.102456-23.965193 28.204912 3.521123L761.712281 866.807018l5.658947 27.50428 26.085053 11.281965-25.384421 12.701193z m-212.291369 21.144702l-2.820491 28.204912-20.462035-19.042807-27.504281 6.359579 11.982597-25.402386-14.102456-23.983158 28.204912 3.539088 18.342175-21.162667 5.640983 27.504281 26.103017 11.281965-25.384421 12.701193z m-169.283368-84.632702l25.402386-12.701193-26.103018-11.281965-5.640982-27.504281-18.324211 21.162667-28.222877-3.539088 14.102456 23.983158-11.982596 25.384421 27.486315-6.341614 20.48 19.042807 2.802527-28.204912z m191.613754-218.992281l-27.935438 6.467369-7.706948-14.156351 27.468351-5.676912c5.245754-1.221614 7.23986-4.994246 5.784702-11.29993l-33.450667-144.940912-138.222035 31.905684 39.145544 169.516912-15.126456 3.503158-42.540912-184.230176 168.474947-38.894035 37.618526 163.013614c3.161825 13.653333-1.329404 21.989053-13.509614 24.791579z m-153.150877-117.077333l107.753544-24.881403 3.251649 14.084491-107.753544 24.863438-3.233684-14.066526z m20.246456 34.043509l84.237474-19.438035 15.629474 67.61993-84.255439 19.456-15.611509-67.637895z m82.045755 38.139509l-9.35972-40.546807-54.828912 12.665263 9.359719 40.546807 54.828913-12.665263z m109.172771-143.36l-33.827929 7.814736-3.000141-13.024561 72.039299-16.635509a96.435649 96.435649 0 0 0-8.892632-10.778947l15.593544-6.25179c3.10793 3.934316 6.539228 8.22793 9.898666 13.204211l73.943579-17.066667 3.000141 13.024562-34.241123 7.904561-4.347509 18.485895 52.29586-12.072421 3.054035 13.222175-182.325895 42.09179-3.054035-13.222176 50.409544-11.641263-10.545404-15.036632z m26.300632 11.425684l48.110035-11.120281 4.347509-18.485895-63.002947 14.551579 10.545403 15.054597z m-36.289123 35.372912l134.413474-31.043368 14.37193 62.158596-134.449404 31.061333-14.353965-62.176561z m131.359439 22.761544l-3.197755-13.868912-105.040842 24.252631 3.21572 13.868912 105.022877-24.252631z m-110.807579-0.754526l105.040842-24.252632-3.10793-13.437754-105.022877 24.252631 3.089965 13.437755z m-12.341895 51.972491l15.39593-0.449123c-1.167719 17.964912-4.545123 34.007579-10.545404 48.235789l-14.910877-5.191859a121.442807 121.442807 0 0 0 10.060351-42.576842z m115.74793 25.043088l-51.253895 11.856842c-14.282105 3.287579-22.707649-1.616842-25.725754-14.659369l-6.395509-27.719859 15.539649-3.592983 5.676912 24.576c1.365333 5.892491 5.443368 8.26386 12.162246 6.700912l44.121825-10.16814c4.616982-1.077895 7.581193-2.640842 8.874666-4.706807 2.030035-2.694737 2.209684-9.593263 0.628772-20.282386l15.342035 1.329404c1.868351 14.821053 0.970105 24.324491-2.461193 28.654035-3.197754 3.413333-8.515368 6.17993-16.509754 8.012351z m-39.163509-48.918457c10.850807 6.790737 19.635649 13.168281 25.851509 19.042807l-10.563368 11.731088a167.612632 167.612632 0 0 0-26.264702-19.833263l10.958596-10.940632z m66.865404-11.22807c15.018667 11.353825 27.073123 21.396211 35.80407 30.450527l-10.563369 11.731087a302.978246 302.978246 0 0 0-35.678315-31.797894l10.437614-10.38372z" p-id="2345"></path></svg>