<?xml version="1.0" standalone="no"?><!DOCTYPE svg PUBLIC "-//W3C//DTD SVG 1.1//EN" "http://www.w3.org/Graphics/SVG/1.1/DTD/svg11.dtd"><svg t="1599009919575" class="icon" viewBox="0 0 1024 1024" version="1.1" xmlns="http://www.w3.org/2000/svg" p-id="2948" xmlns:xlink="http://www.w3.org/1999/xlink" width="128" height="128"><defs><style type="text/css"></style></defs><path d="M816.511 307H207.489C92.896 307 0 398.782 0 512s92.896 205 207.489 205h609.023C931.104 717 1024 625.218 1024 512s-92.896-205-207.489-205z m-48.606 129.473c10.035 6.272 17.973 11.505 23.833 15.68l-5.645 6.272c-0.843-0.833-2.303-1.882-4.391-3.136-7.947-5.85-14.219-10.241-18.815-13.17l5.018-5.646z m-265.923 15.053h67.107c-0.422-0.833-1.049-2.509-1.881-5.018-2.51-5.851-4.391-10.035-5.646-12.543l8.154-2.509a645.412 645.412 0 0 1 8.152 18.188l-6.271 1.882h65.854v25.714h-8.779v-17.561h-117.91v17.561h-8.779v-25.714z m121.672 32.613v7.526H517.033v-7.526h106.621z m-190.119-30.465l-0.075 0.074-136.74 134.573c-5.789 5.695-15.095 5.62-20.791-0.166a2.78 2.78 0 0 0-0.093-0.097l-54.581-56.491a12.16 12.16 0 0 1-1.055-15.651c3.291-4.477 9.586-5.439 14.062-2.149 0.057 0.04 0.111 0.081 0.165 0.122l42.4 32.497a14.699 14.699 0 0 0 18.35-0.373l126.314-105.232a7.351 7.351 0 0 1 9.87 0.418l2.11 2.081a7.355 7.355 0 0 1 0.064 10.394z m208.933 109.49c-0.842 9.613-8.369 14.209-22.578 13.798h-16.307c-15.053 0.411-22.373-5.439-21.951-17.562v-35.122h-31.359c2.088 28.018-14.424 47.244-49.547 57.701-0.42-0.843-1.676-2.725-3.762-5.645-0.422-0.843-0.844-1.471-1.256-1.882 18.395-6.271 30.518-12.328 36.377-18.188 5.85-6.271 8.986-16.934 9.408-31.986h-43.275v-7.525h143.623v7.525h-51.428v33.241c-0.844 8.358 3.762 12.122 13.797 11.289h15.68c8.781 0.411 13.582-2.303 14.426-8.153 0.832-5.018 1.666-10.868 2.508-17.562 1.666 0.843 4.391 1.882 8.154 3.137 0 5.438-0.844 11.083-2.51 16.934z m159.305 2.508c-3.352 10.446-9.202 15.464-17.562 15.052-10.877 0.412-20.069-8.996-27.596-28.223-6.693 7.526-16.728 16.307-30.104 26.342a102.046 102.046 0 0 1-6.271-6.899c12.955-8.359 24.038-17.973 33.24-28.851-5.86-15.885-9.623-39.718-11.289-71.498h-62.718v26.342h44.529c0 12.132-0.627 26.557-1.882 43.275 0 15.052-6.898 22.372-20.696 21.951-2.931 0.421-7.526 0.627-13.798 0.627-0.422-2.92-1.049-6.057-1.882-9.407 5.018 0.421 9.819 0.627 14.425 0.627 9.192 0.421 13.799-3.969 13.799-13.171 0-1.666 0.205-3.969 0.627-6.899 0.411-11.7 0.627-21.324 0.627-28.85h-35.749c-0.422 19.658-1.882 34.289-4.391 43.902-2.097 9.202-6.898 19.854-14.425 31.986-0.422-0.422-1.47-1.255-3.136-2.509-1.676-1.676-2.931-2.725-3.764-3.136 7.526-11.29 12.122-21.736 13.798-31.359 2.088-8.78 3.137-24.666 3.137-47.665v-33.868h70.871v-14.425c-0.422-7.526-0.628-13.171-0.628-16.934h8.153c0 3.763 0.206 8.996 0.628 15.68 0 7.114 0.205 12.337 0.627 15.679h54.564v8.153h-53.938c1.666 28.018 4.596 49.342 8.78 63.973 9.192-12.122 17.973-27.802 26.342-47.039l8.153 3.763c-10.456 23-20.912 40.561-31.359 52.683 6.272 18.404 13.377 27.596 21.324 27.596 4.597 0 7.938-3.136 10.035-9.407 2.087-7.938 3.342-14.631 3.763-20.07 0.412 0.422 1.255 0.843 2.509 1.255 1.255 0.421 3.136 1.049 5.645 1.882-1.252 7.947-2.722 14.425-4.388 19.442z" p-id="2949" fill="#1296db"></path></svg>