<?xml version="1.0" standalone="no"?><!DOCTYPE svg PUBLIC "-//W3C//DTD SVG 1.1//EN" "http://www.w3.org/Graphics/SVG/1.1/DTD/svg11.dtd"><svg t="1599019154715" class="icon" viewBox="0 0 1024 1024" version="1.1" xmlns="http://www.w3.org/2000/svg" p-id="4559" xmlns:xlink="http://www.w3.org/1999/xlink" width="128" height="128"><defs><style type="text/css"></style></defs><path d="M759.296 606.208c-35.84 106.496-136.704 182.784-254.976 182.784-74.752 0-142.336-30.72-191.488-79.872l-65.024 14.848c61.952 77.312 157.184 126.464 263.68 126.464 161.28 0 295.936-112.64 330.24-263.68l-82.432 19.456z m-17.92 4.096l-410.624 94.72c47.104 44.032 109.056 68.608 173.568 68.608 108.032 0 200.192-68.096 237.056-163.328z m-36.352-269.824l86.016-19.968c-60.928-89.088-163.328-147.456-279.552-147.456-170.496 0-311.296 125.44-334.848 289.28l68.096-15.872C276.48 332.8 380.416 249.856 504.32 249.856c79.36 0.512 151.552 35.328 200.704 90.624z m-17.408 4.096C640 293.888 573.44 265.728 503.808 265.728c-113.664 0-209.408 74.24-242.176 177.152l425.984-98.304z m-473.088 387.072l-98.816 22.528-60.416-263.68 89.6-20.48c20.992-184.32 177.152-327.68 367.104-327.68 131.072 0 245.76 68.096 311.296 171.008l83.968-19.456 60.928 264.192-93.184 21.504c-31.744 172.032-182.272 302.08-363.008 302.08-121.856-0.512-229.888-59.392-297.472-150.016zM78.848 497.664l55.296 240.128 809.984-186.88-55.296-240.128L78.848 497.664z" p-id="4560"></path><path d="M256 384l-2.048 20.48-14.848-13.824-19.968 4.608 8.704-18.432-10.24-17.408 20.48 2.56 13.312-15.36 4.096 19.968 18.944 8.192L256 384z m79.872-98.304l-2.048 20.48-14.848-13.824-19.968 4.608 8.704-18.432-10.24-17.408 20.48 2.56 13.312-15.36 4.096 19.968 18.944 8.192c-1.024-0.512-18.432 9.216-18.432 9.216z m122.88-61.44l-2.048 20.48-14.848-13.824-19.968 4.608 8.704-18.432-10.24-17.408 20.48 2.56 13.312-15.36 4.096 19.968 18.944 8.192c-0.512-0.512-18.432 9.216-18.432 9.216z m154.112 15.36l-2.048 20.48-14.848-13.824-19.968 4.608 8.704-18.432-10.24-17.408 20.48 2.56 13.312-15.36 4.096 19.968 18.944 8.192-18.432 9.216z m107.52 61.44l-2.048 20.48-14.848-13.824-19.968 4.608 8.704-18.432-10.24-17.408 20.48 2.56 13.312-15.36 4.096 19.968 18.944 8.192-18.432 9.216z m76.8 338.944l-2.048 20.48-14.848-13.824-19.968 4.608 8.704-18.432-10.24-17.408 20.48 2.56 13.312-15.36 4.096 19.968 18.944 8.192-18.432 9.216z m-61.44 92.16l-2.048 20.48-14.848-13.824-19.968 4.608 8.704-18.432-10.24-17.408 20.48 2.56 13.312-15.36 4.096 19.968 18.944 8.192-18.432 9.216z m-122.88 76.8l-2.048 20.48-14.848-13.824-19.968 4.608 8.704-18.432-10.24-17.408 20.48 2.56 13.312-15.36 4.096 19.968 18.944 8.192-18.432 9.216z m-154.112 15.36l-2.048 20.48-14.848-13.824-19.968 4.608 8.704-18.432-10.24-17.408 20.48 2.56 13.312-15.36 4.096 19.968 18.944 8.192-18.432 9.216z m-122.88-61.44l-2.048 20.48-14.848-13.824-19.968 4.608 8.704-18.432-10.24-17.408 20.48 2.56 13.312-15.36 4.096 19.968 18.944 8.192-18.432 9.216z" p-id="4561"></path><path d="M346.112 571.904c5.12-2.56 12.8-6.656 23.552-12.288l-8.192-36.864-22.528 5.12-2.56-11.776 22.528-5.12-7.168-32.256 12.8-3.072 7.168 32.256 20.48-4.608 2.56 11.776-20.48 4.608 7.68 33.28c6.144-3.072 12.288-6.656 19.456-10.752 1.536 5.632 2.56 9.728 3.072 12.8-2.56 1.536-9.216 5.12-19.968 11.264l11.776 50.688c2.56 11.776-1.536 18.944-12.288 21.504-5.12 1.024-11.264 2.56-17.92 4.096-1.536-4.608-3.584-8.704-5.632-13.312 6.656-1.024 12.288-2.048 16.896-3.072 4.608-1.024 6.656-4.096 5.12-9.728l-9.728-43.52c-6.144 3.584-13.312 7.68-21.504 12.288l-5.12-13.312z m46.592-94.208L488.96 455.68l2.56 12.288-83.456 18.944 6.656 28.16 73.728-16.896 14.848 65.536-12.8 3.072-1.024-5.632-60.416 13.824 7.68 33.28 86.016-19.456 2.56 12.288-98.816 22.528-33.792-145.92z m85.504 35.84L417.28 527.36l8.192 36.352 60.416-13.824-7.68-36.352zM537.088 535.552c11.776-4.096 23.04-7.68 32.768-11.776 0.512 4.608 1.024 8.704 1.536 11.776-12.8 4.608-27.648 10.24-45.568 16.896l-5.632-11.264c5.12-5.12 10.752-18.432 17.408-39.936-9.728 3.072-17.92 5.632-24.064 7.68l-5.632-10.24c6.656-18.432 11.776-38.4 14.848-59.904l13.824 1.536c-4.096 18.432-8.704 36.352-14.848 54.272 4.096-1.024 10.752-2.56 19.456-4.608 2.048-7.68 4.608-16.384 6.656-26.112l12.8 3.072c-7.68 25.088-15.872 48.64-23.552 68.608z m-9.728 44.032c17.408-7.68 34.816-15.36 52.224-24.064 1.024 6.144 1.536 10.24 2.048 12.8-19.456 8.704-35.328 16.384-48.128 22.528l-6.144-11.264z m31.232-93.184c10.752-17.92 19.456-39.424 25.6-63.488l13.312-0.512c-1.536 6.144-3.584 11.776-5.12 17.408l46.08-10.24 2.56 11.264c-4.608 11.264-9.216 20.48-12.8 27.136L660.48 460.8l13.824 59.904-11.776 2.56-1.536-6.656-66.048 14.848 7.68 33.28c1.536 6.656 5.632 9.728 12.288 8.192l50.176-11.264c8.192-2.048 11.776-5.632 11.776-11.264 0-5.12-1.024-12.8-2.56-24.064 4.096 1.024 8.704 1.536 13.824 2.048 1.024 11.776 1.536 19.968 1.536 24.576 0 9.728-6.144 16.384-17.408 18.944l-58.368 13.312c-12.8 3.072-20.48-2.048-23.552-14.336l-18.432-80.896c-2.048 3.584-3.584 6.656-5.632 10.24-2.048-6.144-4.608-10.24-7.68-13.824z m67.072-42.496l-37.888 8.704c-3.584 9.216-7.168 18.432-11.264 26.624l37.376-8.704c3.584-7.168 7.168-15.872 11.776-26.624z m-34.304 75.264l27.136-6.144-6.656-30.208-27.136 6.144 6.656 30.208z m59.392-45.056l-27.136 6.144 6.656 30.208 27.136-6.144-6.656-30.208z" p-id="4562"></path></svg>