<?xml version="1.0" standalone="no"?><!DOCTYPE svg PUBLIC "-//W3C//DTD SVG 1.1//EN" "http://www.w3.org/Graphics/SVG/1.1/DTD/svg11.dtd"><svg t="1598862988947" class="icon" viewBox="0 0 1024 1024" version="1.1" xmlns="http://www.w3.org/2000/svg" p-id="8308" xmlns:xlink="http://www.w3.org/1999/xlink" width="128" height="128"><defs><style type="text/css"></style></defs><path d="M331.093333 488.106667l40.96 83.626666c3.413333 10.24 0 18.773333-8.533333 23.893334l-129.706667 63.146666 25.6 51.2c0 1.706667 1.706667 1.706667 5.12 1.706667l146.773334-71.68 11.946666 25.6-162.133333 78.506667c-11.946667 6.826667-20.48 3.413333-25.6-8.533334l-54.613333-112.64 30.72-15.36 11.946666 25.6 110.933334-54.613333c3.413333-1.706667 5.12-3.413333 1.706666-6.826667l-22.186666-46.08L163.84 597.333333l-11.946667-23.893333 179.2-85.333333zM527.36 614.4l-68.266667 34.133333-11.946666-23.893333 68.266666-34.133333 11.946667 23.893333z m-131.413333-98.986667l3.413333-63.146666 30.72-15.36-5.12 75.093333 8.533333-5.12v-23.893333l30.72-15.36v92.16L494.933333 546.133333l13.653334 27.306667-66.56 32.426667-6.826667-15.36 3.413333-56.32-23.893333 11.946666-18.773333-30.72z m56.32-80.213333l37.546666-18.773333-5.12-8.533334 30.72-15.36 5.12 8.533334 37.546667-18.773334 13.653333 27.306667-37.546666 18.773333 13.653333 27.306667 37.546667-18.773333 13.653333 27.306666-107.52 51.2-13.653333-25.6 39.253333-18.773333-13.653333-27.306667-37.546667 18.773334-13.653333-27.306667z m85.333333 175.786667l-40.96-83.626667 105.813333-51.2 32.426667 68.266667c5.12 10.24 3.413333 18.773333-5.12 22.186666l-92.16 44.373334z m63.146667-66.56l-13.653334-30.72-47.786666 23.893333 17.066666 35.84 42.666667-20.48c3.413333-1.706667 3.413333-3.413333 1.706667-8.533333zM715.093333 442.026667l6.826667 59.733333c1.706667 11.946667-3.413333 20.48-13.653333 25.6l-22.186667 10.24-10.24-22.186667 10.24-5.12c1.706667 0 3.413333-1.706667 3.413333-5.12l-3.413333-47.786666 29.013333-15.36zM682.666667 331.093333l-5.12-11.946666 27.306666-13.653334 5.12 11.946667 78.506667-37.546667 10.24 22.186667-78.506667 39.253333 3.413334 6.826667 73.386666-35.84 23.893334 49.493333c5.12 11.946667 1.706667 20.48-11.946667 25.6l-52.906667 25.6 25.6 52.906667c5.12 11.946667 1.706667 20.48-10.24 27.306667l-32.426666 15.36-10.24-22.186667 17.066666-8.533333c3.413333-1.706667 5.12-3.413333 3.413334-6.826667l-22.186667-46.08-73.386667 35.84-32.426666-66.56 73.386666-35.84-3.413333-6.826667-76.8 37.546667-10.24-22.186667 78.506667-35.84z m-20.48 75.093334l11.946666 23.893333 44.373334-22.186667-11.946667-23.893333-44.373333 22.186667z m117.76-58.026667l-44.373334 22.186667 11.946667 23.893333 40.96-18.773333c1.706667 0 3.413333-1.706667 1.706667-6.826667l-10.24-20.48z m-6.826667 64.853333l32.426667-15.36 34.133333 30.72c3.413333 3.413333 6.826667 3.413333 10.24 1.706667l6.826667-3.413333 10.24 22.186666-22.186667 10.24c-10.24 5.12-17.066667 5.12-22.186667-1.706666l-49.493333-44.373334z" p-id="8309" fill="#F56C6C"></path><path d="M981.333333 469.333333L187.733333 855.04c-20.48 10.24-46.08 1.706667-56.32-20.48L20.48 605.866667c-10.24-20.48-1.706667-46.08 20.48-56.32L834.56 165.546667c20.48-10.24 46.08-1.706667 56.32 20.48l110.933333 228.693333c8.533333 20.48 0 44.373333-20.48 54.613333zM52.906667 576.853333c-6.826667 3.413333-8.533333 10.24-6.826667 17.066667l110.933333 228.693333c3.413333 6.826667 10.24 8.533333 17.066667 6.826667L967.68 443.733333c6.826667-3.413333 8.533333-10.24 6.826667-17.066666l-110.933334-228.693334c-3.413333-6.826667-10.24-8.533333-17.066666-6.826666L52.906667 576.853333zM546.133333 266.24c-1.706667 1.706667-5.12 1.706667-8.533333 1.706667-46.08-5.12-92.16 3.413333-133.12 23.893333s-76.8 51.2-100.693333 90.453333c-5.12 6.826667-13.653333 8.533333-20.48 5.12-6.826667-5.12-8.533333-13.653333-5.12-20.48 27.306667-44.373333 66.56-78.506667 112.64-100.693333s97.28-30.72 148.48-25.6c8.533333 1.706667 13.653333 8.533333 13.653333 15.36 0 3.413333-3.413333 8.533333-6.826667 10.24zM631.466667 759.466667c-46.08 22.186667-97.28 30.72-148.48 25.6-8.533333-1.706667-13.653333-8.533333-13.653334-15.36 1.706667-8.533333 8.533333-13.653333 15.36-13.653334 46.08 5.12 92.16-3.413333 133.12-23.893333s76.8-51.2 100.693334-90.453333c5.12-6.826667 13.653333-8.533333 20.48-5.12 6.826667 5.12 8.533333 13.653333 5.12 20.48-27.306667 44.373333-66.56 80.213333-112.64 102.4z" p-id="8310" fill="#F56C6C"></path><path d="M738.986667 170.666667c-5.12 1.706667-10.24 1.706667-13.653334 0C607.573333 95.573333 460.8 87.04 336.213333 148.48S126.293333 327.68 110.933333 467.626667c-1.706667 8.533333-8.533333 13.653333-17.066666 13.653333-8.533333-1.706667-13.653333-8.533333-13.653334-17.066667 17.066667-148.48 107.52-276.48 242.346667-341.333333s290.133333-56.32 418.133333 22.186667c6.826667 5.12 8.533333 13.653333 5.12 20.48-1.706667 1.706667-3.413333 3.413333-6.826666 5.12zM699.733333 901.12c-134.826667 64.853333-290.133333 56.32-418.133333-22.186667l15.36-25.6c117.76 73.386667 264.533333 81.92 389.12 20.48 126.293333-61.44 209.92-179.2 225.28-319.146666l29.013333 3.413333C925.013333 708.266667 834.56 836.266667 699.733333 901.12z" p-id="8311" fill="#F56C6C"></path><path d="M346.453333 170.666667l22.186667 17.066666 25.6-8.533333-10.24 25.6 17.066667 22.186667-29.013334-1.706667-15.36 22.186667-6.826666-25.6-25.6-8.533334 22.186666-15.36zM218.453333 269.653333l25.6 10.24 22.186667-17.066666-1.706667 27.306666 22.186667 15.36-25.6 6.826667-6.826667 27.306667-15.36-23.893334-29.013333 1.706667 17.066667-22.186667zM503.466667 131.413333L494.933333 157.013333l-27.306666 6.826667 22.186666 17.066667-1.706666 27.306666 22.186666-17.066666 25.6 10.24-8.533333-25.6L546.133333 155.306667h-29.013333z" p-id="8312" fill="#F56C6C"></path><path d="M677.546667 855.04l-1.706667-29.013333 23.893333-13.653334-25.6-8.533333-6.826666-27.306667-17.066667 23.893334-27.306667-1.706667 17.066667 22.186667-10.24 25.6 25.6-10.24zM520.533333 894.293333l8.533334-27.306666 25.6-5.12-22.186667-17.066667 3.413333-27.306667-22.186666 15.36-25.6-10.24 8.533333 27.306667L477.866667 870.4h27.306666zM805.546667 756.053333l-25.6-10.24-22.186667 17.066667 1.706667-27.306667-23.893334-15.36 27.306667-6.826666 6.826667-27.306667 15.36 23.893333 27.306666-1.706666-17.066666 22.186666z" p-id="8313" fill="#F56C6C"></path></svg>