<?xml version="1.0" standalone="no"?><!DOCTYPE svg PUBLIC "-//W3C//DTD SVG 1.1//EN" "http://www.w3.org/Graphics/SVG/1.1/DTD/svg11.dtd"><svg t="1598863081758" class="icon" viewBox="0 0 2153 1024" version="1.1" xmlns="http://www.w3.org/2000/svg" p-id="9832" xmlns:xlink="http://www.w3.org/1999/xlink" width="269.125" height="128"><defs><style type="text/css"></style></defs><path d="M1196.685583 302.399357h107.460394v255.266149h-107.460394zM375.953714 319.908347h70.500657v76.34252h-70.500657zM1385.334587 557.665506h93.353623q12.148418 0 12.148419-12.148418V302.415953h-105.502042z" p-id="9833" fill="#67C23A"></path><path d="M1555.03073 52.410799A124.471499 124.471499 0 0 0 1453.627949 0L124.056594 0.630656A123.492323 123.492323 0 0 0 0 124.056594v620.266371a123.492323 123.492323 0 0 0 124.056594 123.425938l1329.571355 0.61406a124.471499 124.471499 0 0 0 101.402781-52.410799l270.750403-381.762385z m-772.60289 153.232713h291.728v65.63797H782.42784zM247.582109 396.250867h47.1664v-76.34252h-41.324538v-65.63797h41.324538v-52.941877h81.205205v52.991666h70.500657v-54.98321h81.205206v54.950017h48.626865v65.637971h-48.626865v76.342519h52.510376v65.621374h-52.510376V594.143953h-81.205206v-132.255116h-70.500657v83.146961a53.389975 53.389975 0 0 1-12.646304 32.57834 46.635321 46.635321 0 0 1-36.51164 16.5962h-59.746319l-10.704549-65.63797h20.413326q9.725373-0.48129 14.10677-5.343977a19.616708 19.616708 0 0 0 3.883511-12.646304v-48.69325h-47.1664z m-120.587988-186.707248h85.636391v65.63797H127.060506z m459.050887 464.328478h-354.992714a72.293046 72.293046 0 0 1-29.657409-9.244083q-11.61734 9.227487-32.578341 9.244083H118.729213l-10.65476-61.737863h15.06935q12.148418 0 12.148418-12.148419V374.377075h-23.898528v-65.63797h105.020752v294.21743a33.1924 33.1924 0 0 0 15.567236 5.343977h354.063327z m141.980489-250.884753v250.884753h-81.205206V440.496335h-27.234364l-11.617339-65.63797H624.017113q21.873791-0.48129 29.176119-14.10677l13.127594-35.001385h81.205206l-30.138699 78.765564a121.666741 121.666741 0 0 1-12.148418 18.47157z m-12.646304-141.067698q-17.027701 35.980561-52.029087 35.980561h-43.764179l-11.617339-65.63797h14.106769q21.873791-0.48129 29.17612-14.10677l17.011104-38.901492h81.205206z m368.551809 131.342325h-54.50192v212.431358q-0.497886 17.011105-12.646305 32.09705-13.62548 16.048525-35.499271 16.048526h-138.578268l-9.725373-61.75446h97.73502q10.206663 0 13.608884-4.862686a19.649901 19.649901 0 0 0 3.900107-12.563324v-181.396464H762.977094v-65.63797h320.953908z m440.463143 210.058101h-139.059558v50.568621H1304.129381v-50.568621H1115.463781V236.777983H1304.129381v-39.382782h81.205206v39.382782h186.707247v338.8944q-0.497886 47.631093-47.647689 47.647689z" p-id="9834" fill="#67C23A"></path></svg>