<?xml version="1.0" standalone="no"?><!DOCTYPE svg PUBLIC "-//W3C//DTD SVG 1.1//EN" "http://www.w3.org/Graphics/SVG/1.1/DTD/svg11.dtd"><svg t="1598863783760" class="icon" viewBox="0 0 1024 1024" version="1.1" xmlns="http://www.w3.org/2000/svg" p-id="11217" xmlns:xlink="http://www.w3.org/1999/xlink" width="128" height="128"><defs><style type="text/css"></style></defs><path d="M612.864 760.7296H451.584l-0.6656-39.936c0-49.3568 8.6528-89.9584 25.9584-121.8048 17.2544-31.8464 51.8656-67.6352 103.7312-107.4176l19.2512-14.848c40.3968-31.5392 64.9728-52.6336 73.728-63.3344 15.6672-19.5072 23.4496-40.96 23.4496-64.512 0-32.6144-13.824-60.5696-41.472-83.8144-27.5968-23.296-64.8192-34.9184-111.616-34.9184-45.1584 0-82.944 12.1344-113.2544 36.352-30.4128 24.32-51.2512 61.3376-62.6688 111.104L204.8 358.4c4.608-71.2192 36.8128-131.6864 96.512-181.4528C360.96 127.2832 439.296 102.4 536.32 102.4c102.0928 0 183.296 25.1904 243.6096 75.52C840.192 228.2496 870.4 286.8224 870.4 353.6896c0 37.0176-11.0592 71.9872-33.2288 105.0624-21.1968 31.6416-65.536 74.24-133.12 127.7952l-8.9088 7.0656c-37.5296 29.44-60.8256 53.1456-69.888 71.0144-9.1136 17.92-13.2096 49.9712-12.3392 96.1024zM448.512 972.8v-156.0576h163.84V972.8h-163.84z" p-id="11218" fill="#dbdbdb"></path></svg>